#Comment line ignore any data following # character 
#Hierarchical Translation and Rotation (.htr) file 
[Header]	
#Header keywords are followed by a single value 
FileType HTR		#Single word string
DataType HTRS		#Translation followed by rotation and scale data
FileVersion 1		#integer
NumSegments 84		#integer
NumFrames 2		#integer
DataFrameRate 30		#integer, data frame rate in this file
EulerRotationOrder ZYX
CalibrationUnits mm
RotationUnits Degrees
GlobalAxisofGravity Y
BoneLengthAxis Y
ScaleFactor 1.00
[SegmentNames&Hierarchy]
#CHILD	PARENT
MASTER GLOBAL
root MASTER
chest root
L_mid_tent01 root
R_mid_tent01 root
spine01 root
Bip01_Neck chest
L_humerus chest
R_humerus chest
weapon_bone chest
Bip01_Head Bip01_Neck
eye_left_bone Bip01_Head
eye_right_bone Bip01_Head
L_forearm L_humerus
L_front_hand L_forearm
L_weapon_bone L_forearm
L_front_hand01_01 L_front_hand
L_front_hand02_01 L_front_hand
L_front_hand03_01 L_front_hand
L_front_hand01_02 L_front_hand01_01
L_front_hand02_02 L_front_hand02_01
L_front_hand03_02 L_front_hand03_01
R_forearm R_humerus
R_front_hand R_forearm
R_weapon_bone R_forearm
R_front_hand01_01 R_front_hand
R_front_hand02_01 R_front_hand
R_front_hand03_01 R_front_hand
R_front_hand01_02 R_front_hand01_01
R_front_hand02_02 R_front_hand02_01
R_front_hand03_02 R_front_hand03_01
null_rope01_connect L_mid_tent01
Rope1_Seg01 null_rope01_connect
Rope1_Seg02 Rope1_Seg01
Rope1_Seg03 Rope1_Seg02
Rope1_Seg04 Rope1_Seg03
Rope1_Seg05 Rope1_Seg04
Rope1_Seg06 Rope1_Seg05
Rope1_Seg07 Rope1_Seg06
Rope1_Seg09 Rope1_Seg07
L_mid_hand01 Rope1_Seg09
L_mid_hand02 Rope1_Seg09
L_mid_hand03 Rope1_Seg09
null_rope02_connect R_mid_tent01
Rope2_Seg01 null_rope02_connect
Rope2_Seg02 Rope2_Seg01
Rope2_Seg03 Rope2_Seg02
Rope2_Seg04 Rope2_Seg03
Rope2_Seg05 Rope2_Seg04
Rope2_Seg06 Rope2_Seg05
Rope2_Seg07 Rope2_Seg06
Rope2_Seg09 Rope2_Seg07
R_mid_hand01 Rope2_Seg09
R_mid_hand02 Rope2_Seg09
R_mid_hand03 Rope2_Seg09
spine02 spine01
spine03 spine02
pelvis spine03
null_rope03_connect pelvis
null_rope04_connect pelvis
Rope3_Seg01 null_rope03_connect
Rope3_Seg02 Rope3_Seg01
Rope3_Seg03 Rope3_Seg02
Rope3_Seg04 Rope3_Seg03
Rope3_Seg05 Rope3_Seg04
Rope3_Seg06 Rope3_Seg05
Rope3_Seg07 Rope3_Seg06
Rope3_Seg08 Rope3_Seg07
Rope3_Seg09 Rope3_Seg08
R_rear_hand01 Rope3_Seg09
R_rear_hand02 Rope3_Seg09
R_rear_hand03 Rope3_Seg09
Rope4_Seg01 null_rope04_connect
Rope4_Seg02 Rope4_Seg01
Rope4_Seg03 Rope4_Seg02
Rope4_Seg04 Rope4_Seg03
Rope4_Seg05 Rope4_Seg04
Rope4_Seg06 Rope4_Seg05
Rope4_Seg07 Rope4_Seg06
Rope4_Seg08 Rope4_Seg07
Rope4_Seg09 Rope4_Seg08
L_rear_hand01 Rope4_Seg09
L_rear_hand02 Rope4_Seg09
L_rear_hand03 Rope4_Seg09
[BasePosition]
#SegmentName Tx, Ty, Tz, Rx, Ry, Rz, BoneLength
MASTER 0.000000 0.000000 0.000000 -90.000000 0.000000 0.000000 10.000000 
root 0.000000 0.000000 0.000000 0.000000 0.000000 0.000000 10.000000 
chest 0.000000 0.000000 0.000000 0.000000 0.000000 0.000000 10.000000 
L_mid_tent01 0.000000 0.000000 0.000000 0.000000 0.000000 0.000000 10.000000 
R_mid_tent01 0.000000 0.000000 0.000000 0.000000 0.000000 0.000000 10.000000 
spine01 0.000000 0.000000 0.000000 0.000000 0.000000 0.000000 10.000000 
Bip01_Neck 0.000000 0.000000 0.000000 0.000000 0.000000 0.000000 10.000000 
L_humerus 0.000000 0.000000 0.000000 0.000000 0.000000 0.000000 10.000000 
R_humerus 0.000000 0.000000 0.000000 0.000000 0.000000 0.000000 10.000000 
weapon_bone 0.000000 0.000000 0.000000 0.000000 0.000000 0.000000 10.000000 
Bip01_Head 0.000000 0.000000 0.000000 0.000000 0.000000 0.000000 10.000000 
eye_left_bone 0.000000 0.000000 0.000000 0.000000 0.000000 0.000000 10.000000 
eye_right_bone 0.000000 0.000000 0.000000 0.000000 0.000000 0.000000 10.000000 
L_forearm 0.000000 0.000000 0.000000 0.000000 0.000000 0.000000 10.000000 
L_front_hand 0.000000 0.000000 0.000000 0.000000 0.000000 0.000000 10.000000 
L_weapon_bone 0.000000 0.000000 0.000000 0.000000 0.000000 0.000000 10.000000 
L_front_hand01_01 0.000000 0.000000 0.000000 0.000000 0.000000 0.000000 10.000000 
L_front_hand02_01 0.000000 0.000000 0.000000 0.000000 0.000000 0.000000 10.000000 
L_front_hand03_01 0.000000 0.000000 0.000000 0.000000 0.000000 0.000000 10.000000 
L_front_hand01_02 0.000000 0.000000 0.000000 0.000000 0.000000 0.000000 10.000000 
L_front_hand02_02 0.000000 0.000000 0.000000 0.000000 0.000000 0.000000 10.000000 
L_front_hand03_02 0.000000 0.000000 0.000000 0.000000 0.000000 0.000000 10.000000 
R_forearm 0.000000 0.000000 0.000000 0.000000 0.000000 0.000000 10.000000 
R_front_hand 0.000000 0.000000 0.000000 0.000000 0.000000 0.000000 10.000000 
R_weapon_bone 0.000000 0.000000 0.000000 0.000000 0.000000 0.000000 10.000000 
R_front_hand01_01 0.000000 0.000000 0.000000 0.000000 0.000000 0.000000 10.000000 
R_front_hand02_01 0.000000 0.000000 0.000000 0.000000 0.000000 0.000000 10.000000 
R_front_hand03_01 0.000000 0.000000 0.000000 0.000000 0.000000 0.000000 10.000000 
R_front_hand01_02 0.000000 0.000000 0.000000 0.000000 0.000000 0.000000 10.000000 
R_front_hand02_02 0.000000 0.000000 0.000000 0.000000 0.000000 0.000000 10.000000 
R_front_hand03_02 0.000000 0.000000 0.000000 0.000000 0.000000 0.000000 10.000000 
null_rope01_connect 0.000000 0.000000 0.000000 0.000000 0.000000 0.000000 10.000000 
Rope1_Seg01 0.000000 0.000000 0.000000 0.000000 0.000000 0.000000 10.000000 
Rope1_Seg02 0.000000 0.000000 0.000000 0.000000 0.000000 0.000000 10.000000 
Rope1_Seg03 0.000000 0.000000 0.000000 0.000000 0.000000 0.000000 10.000000 
Rope1_Seg04 0.000000 0.000000 0.000000 0.000000 0.000000 0.000000 10.000000 
Rope1_Seg05 0.000000 0.000000 0.000000 0.000000 0.000000 0.000000 10.000000 
Rope1_Seg06 0.000000 0.000000 0.000000 0.000000 0.000000 0.000000 10.000000 
Rope1_Seg07 0.000000 0.000000 0.000000 0.000000 0.000000 0.000000 10.000000 
Rope1_Seg09 0.000000 0.000000 0.000000 0.000000 0.000000 0.000000 10.000000 
L_mid_hand01 0.000000 0.000000 0.000000 0.000000 0.000000 0.000000 10.000000 
L_mid_hand02 0.000000 0.000000 0.000000 0.000000 0.000000 0.000000 10.000000 
L_mid_hand03 0.000000 0.000000 0.000000 0.000000 0.000000 0.000000 10.000000 
null_rope02_connect 0.000000 0.000000 0.000000 0.000000 0.000000 0.000000 10.000000 
Rope2_Seg01 0.000000 0.000000 0.000000 0.000000 0.000000 0.000000 10.000000 
Rope2_Seg02 0.000000 0.000000 0.000000 0.000000 0.000000 0.000000 10.000000 
Rope2_Seg03 0.000000 0.000000 0.000000 0.000000 0.000000 0.000000 10.000000 
Rope2_Seg04 0.000000 0.000000 0.000000 0.000000 0.000000 0.000000 10.000000 
Rope2_Seg05 0.000000 0.000000 0.000000 0.000000 0.000000 0.000000 10.000000 
Rope2_Seg06 0.000000 0.000000 0.000000 0.000000 0.000000 0.000000 10.000000 
Rope2_Seg07 0.000000 0.000000 0.000000 0.000000 0.000000 0.000000 10.000000 
Rope2_Seg09 0.000000 0.000000 0.000000 0.000000 0.000000 0.000000 10.000000 
R_mid_hand01 0.000000 0.000000 0.000000 0.000000 0.000000 0.000000 10.000000 
R_mid_hand02 0.000000 0.000000 0.000000 0.000000 0.000000 0.000000 10.000000 
R_mid_hand03 0.000000 0.000000 0.000000 0.000000 0.000000 0.000000 10.000000 
spine02 0.000000 0.000000 0.000000 0.000000 0.000000 0.000000 10.000000 
spine03 0.000000 0.000000 0.000000 0.000000 0.000000 0.000000 10.000000 
pelvis 0.000000 0.000000 0.000000 0.000000 0.000000 0.000000 10.000000 
null_rope03_connect 0.000000 0.000000 0.000000 0.000000 0.000000 0.000000 10.000000 
null_rope04_connect 0.000000 0.000000 0.000000 0.000000 0.000000 0.000000 10.000000 
Rope3_Seg01 0.000000 0.000000 0.000000 0.000000 0.000000 0.000000 10.000000 
Rope3_Seg02 0.000000 0.000000 0.000000 0.000000 0.000000 0.000000 10.000000 
Rope3_Seg03 0.000000 0.000000 0.000000 0.000000 0.000000 0.000000 10.000000 
Rope3_Seg04 0.000000 0.000000 0.000000 0.000000 0.000000 0.000000 10.000000 
Rope3_Seg05 0.000000 0.000000 0.000000 0.000000 0.000000 0.000000 10.000000 
Rope3_Seg06 0.000000 0.000000 0.000000 0.000000 0.000000 0.000000 10.000000 
Rope3_Seg07 0.000000 0.000000 0.000000 0.000000 0.000000 0.000000 10.000000 
Rope3_Seg08 0.000000 0.000000 0.000000 0.000000 0.000000 0.000000 10.000000 
Rope3_Seg09 0.000000 0.000000 0.000000 0.000000 0.000000 0.000000 10.000000 
R_rear_hand01 0.000000 0.000000 0.000000 0.000000 0.000000 0.000000 10.000000 
R_rear_hand02 0.000000 0.000000 0.000000 0.000000 0.000000 0.000000 10.000000 
R_rear_hand03 0.000000 0.000000 0.000000 0.000000 0.000000 0.000000 10.000000 
Rope4_Seg01 0.000000 0.000000 0.000000 0.000000 0.000000 0.000000 10.000000 
Rope4_Seg02 0.000000 0.000000 0.000000 0.000000 0.000000 0.000000 10.000000 
Rope4_Seg03 0.000000 0.000000 0.000000 0.000000 0.000000 0.000000 10.000000 
Rope4_Seg04 0.000000 0.000000 0.000000 0.000000 0.000000 0.000000 10.000000 
Rope4_Seg05 0.000000 0.000000 0.000000 0.000000 0.000000 0.000000 10.000000 
Rope4_Seg06 0.000000 0.000000 0.000000 0.000000 0.000000 0.000000 10.000000 
Rope4_Seg07 0.000000 0.000000 0.000000 0.000000 0.000000 0.000000 10.000000 
Rope4_Seg08 0.000000 0.000000 0.000000 0.000000 0.000000 0.000000 10.000000 
Rope4_Seg09 0.000000 0.000000 0.000000 0.000000 0.000000 0.000000 10.000000 
L_rear_hand01 0.000000 0.000000 0.000000 0.000000 0.000000 0.000000 10.000000 
L_rear_hand02 0.000000 0.000000 0.000000 0.000000 0.000000 0.000000 10.000000 
L_rear_hand03 0.000000 0.000000 0.000000 0.000000 0.000000 0.000000 10.000000 
#Beginning of Data. Separated by tabs
#Fr	Tx	Ty	Tz	Rx	Ry	Rz	SF
[MASTER]
23 0.000000 0.000000 0.000000 0.001660 0.001660 0.001660 0.000000
24 0.000000 0.000000 0.000000 0.001660 0.001660 0.001660 0.000000
[root]
23 -30.391560 -56.339436 1501.814941 -94.280052 -39.816353 -86.963341 1503.178589
24 -29.856682 -56.428474 1501.729614 -91.682388 -39.658295 -87.081047 1503.085938
[chest]
23 -84.512650 -34.090519 0.000000 -9.955802 -14.057289 171.523941 91.129311
24 -84.512650 -34.090519 0.000000 -9.162805 -12.201244 172.409561 91.129311
[L_mid_tent01]
23 27.299185 22.179106 -249.918701 3.862628 36.229202 81.347610 252.381699
24 27.299189 22.179106 -249.918701 3.862628 36.229202 81.347610 252.381699
[R_mid_tent01]
23 23.228794 24.509907 226.238495 160.432037 -47.061241 87.899765 228.744751
24 23.228794 24.509907 226.238495 160.432037 -47.061241 87.899765 228.744751
[spine01]
23 -0.361383 -0.195265 0.000000 0.002062 0.001122 32.879829 0.410763
24 -0.361383 -0.195265 0.000000 0.002062 0.001122 32.879829 0.410763
[Bip01_Neck]
23 165.484543 71.581718 0.000119 176.643677 -1.657967 43.431911 180.302734
24 165.484543 71.581718 0.000119 176.643677 -1.657967 43.431911 180.302734
[L_humerus]
23 -13.983130 -135.272980 -120.471481 156.317398 70.210068 -112.010254 181.680161
24 -13.983130 -135.272980 -120.471481 156.317398 70.210068 -112.010254 181.680161
[R_humerus]
23 -13.983309 -135.273102 125.287651 -172.382263 -66.903831 -92.553993 184.909012
24 -13.983309 -135.273102 125.287651 -172.382263 -66.903831 -92.553993 184.909012
[weapon_bone]
23 235.964890 -300.705902 0.000000 0.000000 -89.951546 -128.212341 382.234833
24 235.964890 -300.705902 0.000000 0.000000 -89.951546 -128.212341 382.234833
[Bip01_Head]
23 213.332047 186.027557 7.747054 19.271614 5.204423 -43.853615 283.155121
24 213.333084 186.024643 7.784624 14.515857 4.879162 -43.858990 283.155029
[eye_left_bone]
23 -24.626970 125.451866 -64.772606 0.000000 -90.000000 -99.840431 143.318359
24 -24.626970 125.451866 -64.772606 0.000000 -90.000000 -99.840431 143.318359
[eye_right_bone]
23 -24.626970 125.451866 64.327362 0.000000 -89.965736 80.156380 143.117676
24 -24.626970 125.451866 64.327362 0.000000 -89.965736 80.156380 143.117676
[L_forearm]
23 322.776093 0.000000 -0.000119 0.000396 -0.002314 -109.419975 322.776093
24 322.776093 0.000000 -0.000119 0.000396 -0.002314 -109.419975 322.776093
[L_front_hand]
23 241.149185 -0.042021 -3.300071 -178.667953 -1.835447 -27.422350 241.171753
24 241.149185 -0.042021 -3.300071 -178.667953 -1.835447 -27.422350 241.171753
[L_weapon_bone]
23 156.183838 0.000000 0.000000 0.000014 0.000007 0.000001 156.183838
24 156.183838 0.000000 0.000000 0.000014 0.000007 0.000001 156.183838
[L_front_hand01_01]
23 86.095154 20.947098 -0.655860 -0.321505 -0.503456 70.187172 88.609184
24 86.095154 20.947098 -0.655860 -0.328329 -0.501879 70.955482 88.609184
[L_front_hand02_01]
23 86.935165 -11.437475 24.513514 146.961212 -57.331749 -52.661201 91.046425
24 86.935165 -11.437475 24.513514 147.981094 -57.745911 -53.867275 91.046425
[L_front_hand03_01]
23 86.637497 -14.123976 -20.424902 -146.985443 55.548393 -54.432812 90.126129
24 86.637497 -14.123976 -20.424902 -147.939621 55.963066 -55.586479 90.126129
[L_front_hand01_02]
23 71.020905 -0.000179 0.000030 0.000319 -0.002325 -105.617981 71.020905
24 71.020905 -0.000179 0.000030 0.000320 -0.002325 -105.671768 71.020905
[L_front_hand02_02]
23 71.020927 -0.000119 0.000060 0.000319 -0.002325 -105.617981 71.020927
24 71.020927 -0.000119 0.000060 0.000320 -0.002325 -105.671768 71.020927
[L_front_hand03_02]
23 71.020905 -0.000060 0.000060 0.000319 -0.002325 -105.617981 71.020905
24 71.020905 -0.000060 0.000060 0.000320 -0.002325 -105.671768 71.020905
[R_forearm]
23 322.776428 -0.000060 0.000030 0.202103 0.065158 -108.062805 322.776428
24 322.776428 -0.000060 0.000030 0.202103 0.065158 -108.062805 322.776428
[R_front_hand]
23 238.847015 -0.006795 2.210259 -2.635298 -10.645461 -26.312506 238.857239
24 238.847015 -0.006795 2.210259 -2.635298 -10.645461 -26.312506 238.857239
[R_weapon_bone]
23 155.664093 0.002503 -0.000030 0.003487 0.001180 -90.988930 155.664078
24 155.664093 0.002503 -0.000030 0.003487 0.001180 -90.988930 155.664078
[R_front_hand01_01]
23 87.624611 14.231146 22.918642 -148.462097 -57.932728 54.541969 91.683487
24 87.624611 14.231146 22.918642 -150.319733 -58.611870 56.726913 91.683487
[R_front_hand02_01]
23 89.356956 14.367283 -19.491137 148.801514 56.299931 56.856514 92.579636
24 89.356956 14.367283 -19.491137 150.553223 56.974075 58.956432 92.579636
[R_front_hand03_01]
23 87.286232 -22.307278 -0.143439 0.131531 -0.433516 -71.547462 90.091743
24 87.286232 -22.307278 -0.143439 0.140549 -0.429018 -72.881989 90.091743
[R_front_hand01_02]
23 71.020905 0.000060 0.000119 0.002323 -0.000334 106.381714 71.020905
24 71.020905 0.000060 0.000119 0.002323 -0.000334 106.381714 71.020905
[R_front_hand02_02]
23 71.020844 -0.000030 -0.000119 0.002323 -0.000334 106.381714 71.020836
24 71.020844 -0.000030 -0.000119 0.002323 -0.000334 106.381714 71.020836
[R_front_hand03_02]
23 71.020905 0.000000 0.000030 0.002323 -0.000334 106.381714 71.020905
24 71.020905 0.000000 0.000030 0.002323 -0.000334 106.381714 71.020905
[null_rope01_connect]
23 328.732483 0.000000 -0.000238 -128.614700 -51.861954 179.384109 328.732483
24 328.732483 0.000000 -0.000238 -128.071106 -54.306526 178.377884 328.732483
[Rope1_Seg01]
23 -0.000005 -0.000009 0.000018 105.020897 -3.992579 -169.677216 0.000021
24 -0.000003 -0.000006 0.000012 106.251144 -2.345695 -170.346588 0.000014
[Rope1_Seg02]
23 139.999863 -0.000179 0.000000 13.884802 -14.567540 -12.524594 139.999863
24 139.999863 -0.000179 0.000000 13.285569 -14.806148 -11.397832 139.999863
[Rope1_Seg03]
23 139.999924 0.000060 -0.000060 20.113070 -24.869701 -19.014797 139.999924
24 139.999924 0.000060 -0.000060 18.665960 -24.776718 -17.517290 139.999924
[Rope1_Seg04]
23 139.999924 -0.000060 -0.000119 6.829698 -29.352243 -3.581351 139.999924
24 139.999924 -0.000060 -0.000119 5.809957 -30.459681 -2.345952 139.999924
[Rope1_Seg05]
23 139.999832 0.000119 -0.000060 -6.100114 -29.178108 13.715680 139.999832
24 139.999832 0.000119 -0.000060 -6.769886 -28.779303 14.372595 139.999832
[Rope1_Seg06]
23 139.999954 0.000119 -0.000060 -4.737136 -12.916536 4.015806 139.999954
24 139.999954 0.000119 -0.000060 -4.687166 -11.940731 3.767296 139.999954
[Rope1_Seg07]
23 139.999985 0.000060 0.000000 -3.160288 -6.227116 1.209193 139.999985
24 139.999985 0.000060 0.000000 -3.099618 -5.817078 1.184648 139.999985
[Rope1_Seg09]
23 121.602913 0.000119 -0.000089 -89.793175 -1.359789 0.847147 121.602913
24 121.602913 0.000119 -0.000089 -89.793175 -1.359789 0.847147 121.602913
[L_mid_hand01]
23 103.859421 1.038730 8.195221 130.544373 -67.584534 -38.866943 104.187431
24 103.859421 1.038730 8.195221 130.544373 -67.584534 -38.866943 104.187431
[L_mid_hand02]
23 105.572853 -4.139662 -10.864139 -168.923172 43.409309 -73.498886 106.211075
24 105.572853 -4.139662 -10.864139 -168.923172 43.409309 -73.498886 106.211075
[L_mid_hand03]
23 104.641464 17.579376 -3.913581 -6.012627 17.808174 74.893669 106.179977
24 104.641464 17.579376 -3.913581 -6.012627 17.808174 74.893669 106.179977
[null_rope02_connect]
23 328.732849 0.000179 -0.000119 -109.393280 40.822388 21.479177 328.732849
24 328.732849 0.000179 -0.000119 -110.768242 38.689709 19.738691 328.732849
[Rope2_Seg01]
23 -0.000125 0.000091 0.000000 -108.976204 37.715607 -23.424522 0.000155
24 -0.000134 0.000090 0.000000 -95.496811 33.357845 -19.717865 0.000162
[Rope2_Seg02]
23 139.999741 -0.000060 -0.000119 -8.798227 -3.609521 7.266362 139.999756
24 139.999741 -0.000060 -0.000119 -10.321700 -3.165539 8.028239 139.999756
[Rope2_Seg03]
23 140.000107 0.000030 0.000000 -8.897759 -8.079364 11.633392 140.000107
24 140.000107 0.000030 0.000000 -10.289115 -7.802773 12.877313 140.000107
[Rope2_Seg04]
23 139.999802 0.000000 -0.000060 -7.710923 -15.938722 17.186855 139.999802
24 139.999802 0.000000 -0.000060 -8.424422 -14.710217 17.987209 139.999802
[Rope2_Seg05]
23 139.999985 -0.000060 0.000119 -5.855996 -21.812847 22.069916 139.999985
24 139.999985 -0.000060 0.000119 -6.318638 -23.927944 23.054567 139.999985
[Rope2_Seg06]
23 139.999893 -0.000030 -0.000119 -0.143525 -18.556444 18.100424 139.999893
24 139.999893 -0.000030 -0.000119 -0.317255 -20.275530 17.651676 139.999893
[Rope2_Seg07]
23 139.999893 0.000060 -0.000060 2.737082 -8.804372 8.920218 139.999893
24 139.999893 0.000060 -0.000060 2.632109 -8.662060 8.064795 139.999893
[Rope2_Seg09]
23 121.338966 0.000089 -0.000060 33.793236 -1.359788 -0.847141 121.338966
24 121.338966 0.000089 -0.000060 33.793236 -1.359788 -0.847141 121.338966
[R_mid_hand01]
23 104.680779 11.144459 -10.335981 -16.212063 45.237247 70.462852 105.778534
24 104.680779 11.144459 -10.335981 -16.212063 45.237247 70.462852 105.778534
[R_mid_hand02]
23 104.070427 2.443552 8.231699 49.067368 -67.749771 39.286453 104.424065
24 104.070427 2.443552 8.231699 49.067368 -67.749771 39.286453 104.424065
[R_mid_hand03]
23 106.028137 -11.221827 -5.996406 -177.101105 15.551026 -76.585571 106.788818
24 106.028137 -11.221827 -5.996406 -177.101105 15.551026 -76.585571 106.788818
[spine02]
23 129.756927 0.001550 0.000119 0.360061 -4.044797 -12.915058 129.756927
24 129.756927 0.001550 0.000119 0.360061 -4.044797 -12.915058 129.756927
[spine03]
23 78.614067 0.081635 -4.899014 1.896495 3.831288 16.473045 78.766602
24 78.614067 0.081635 -4.899014 1.896495 3.831288 16.473045 78.766602
[pelvis]
23 169.435242 0.051022 0.000000 -0.060465 -0.180225 14.087930 169.435257
24 169.435242 0.051022 0.000000 -0.060465 -0.180225 14.087930 169.435257
[null_rope03_connect]
23 -1.257226 -2.466202 137.391083 162.625610 -87.666367 -83.248550 137.418976
24 -1.257226 -2.466202 137.391083 96.107231 -87.744057 -16.952650 137.418976
[null_rope04_connect]
23 -1.259640 -2.480268 -137.844437 162.625610 -87.666367 -83.248550 137.872513
24 -1.259640 -2.480268 -137.844437 96.107231 -87.744057 -16.952650 137.872513
[Rope3_Seg01]
23 0.000010 0.000038 -0.000114 -140.897141 -46.871616 -70.185669 0.000121
24 0.000010 0.000038 -0.000114 -150.896805 -56.228569 -61.653004 0.000121
[Rope3_Seg02]
23 139.999924 -0.000119 0.000060 7.212539 -18.606295 -15.959701 139.999924
24 139.999924 -0.000119 0.000060 7.452703 -17.265049 -14.076579 139.999924
[Rope3_Seg03]
23 139.999924 -0.000119 0.000119 0.127375 -3.458725 -5.471727 139.999924
24 139.999924 -0.000119 0.000119 1.961570 -4.606038 -4.147324 139.999924
[Rope3_Seg04]
23 139.999924 0.000119 0.000000 8.271910 -9.341154 -2.784838 139.999924
24 139.999924 0.000119 0.000000 5.975750 -7.229641 -3.567339 139.999924
[Rope3_Seg05]
23 139.999924 -0.000238 0.000060 34.328934 -22.778723 -0.152995 139.999924
24 139.999924 -0.000238 0.000060 35.110725 -20.258558 -6.099784 139.999924
[Rope3_Seg06]
23 139.999893 -0.000119 -0.000060 29.173252 -16.291468 11.004493 139.999893
24 139.999893 -0.000119 -0.000060 52.319962 -23.007948 7.883485 139.999893
[Rope3_Seg07]
23 139.999771 0.000060 -0.000119 12.260915 -5.378182 10.655562 139.999771
24 139.999771 0.000060 -0.000119 16.159651 -4.763253 14.341599 139.999771
[Rope3_Seg08]
23 139.999985 -0.000060 0.000000 5.441949 -1.665890 6.591372 139.999985
24 139.999985 -0.000060 0.000000 5.622493 -0.269037 8.329471 139.999985
[Rope3_Seg09]
23 90.185997 -0.000179 -0.000060 89.793228 -1.359877 -0.847183 90.185997
24 90.185997 -0.000179 -0.000060 89.793228 -1.359877 -0.847183 90.185997
[R_rear_hand01]
23 103.366196 -6.073594 -10.757982 -177.714203 24.565960 -73.910950 104.101845
24 103.366196 -6.073594 -10.757982 -177.714203 24.565960 -73.910950 104.101845
[R_rear_hand02]
23 100.509819 12.039542 -7.992327 -12.874829 36.868488 72.167213 101.543350
24 100.509819 12.039542 -7.992327 -12.874829 36.868488 72.167213 101.543350
[R_rear_hand03]
23 101.539970 5.215704 5.435467 71.484581 -71.816628 21.513813 101.819031
24 101.539970 5.215704 5.435467 71.484581 -71.816628 21.513813 101.819031
[Rope4_Seg01]
23 0.000010 0.000005 -0.000018 77.056450 -37.867176 -141.883774 0.000021
24 0.000010 0.000003 -0.000012 68.634796 -33.762596 -134.075775 0.000016
[Rope4_Seg02]
23 139.999985 0.000060 0.000119 -13.967218 7.140403 -14.228442 139.999985
24 139.999985 0.000060 0.000119 -5.817481 -3.058773 -9.544116 139.999985
[Rope4_Seg03]
23 139.999924 0.000000 -0.000238 -20.686337 21.840479 -22.548433 139.999924
24 139.999924 0.000000 -0.000238 -18.615191 -0.928997 -19.727232 139.999924
[Rope4_Seg04]
23 139.999985 0.000000 0.000119 -6.111350 26.186590 -9.395020 139.999985
24 139.999985 0.000000 0.000119 -37.380009 6.545304 -32.163448 139.999985
[Rope4_Seg05]
23 139.999802 -0.000060 -0.000119 -3.925769 8.688440 -29.013565 139.999802
24 139.999802 -0.000060 -0.000119 -52.321518 4.760991 -51.813301 139.999802
[Rope4_Seg06]
23 139.999924 0.000000 0.000060 -17.401602 7.114133 -62.079243 139.999924
24 139.999924 0.000000 0.000060 -9.587470 13.675234 -9.209366 139.999924
[Rope4_Seg07]
23 139.999802 0.000000 0.000000 -5.504015 7.486616 -14.421347 139.999802
24 139.999802 0.000000 0.000000 -2.057150 5.747551 -2.236288 139.999802
[Rope4_Seg08]
23 139.999924 0.000000 0.000119 -3.049770 3.004954 -4.751604 139.999924
24 139.999924 0.000000 0.000119 -2.328821 2.855878 -0.996545 139.999924
[Rope4_Seg09]
23 90.185791 0.000060 0.000060 -135.617828 2.228885 0.850567 90.185791
24 90.185791 0.000060 0.000060 -135.617828 2.228885 0.850567 90.185791
[L_rear_hand01]
23 101.696655 -8.392275 -7.654577 -12.874829 -36.868488 107.832764 102.329041
24 101.696655 -8.392275 -7.654577 -12.874829 -36.868488 107.832764 102.329041
[L_rear_hand02]
23 102.726799 -1.568258 5.773216 71.484581 71.816628 158.486160 102.900848
24 102.726799 -1.568258 5.773216 71.484581 71.816628 158.486160 102.900848
[L_rear_hand03]
23 104.552910 9.721220 -10.420293 -177.714203 -24.565960 -106.089035 105.519653
24 104.552910 9.721220 -10.420293 -177.714203 -24.565960 -106.089035 105.519653
